# xmcd CD database file
#
# Track frame offsets:
#	150
#	23393
#	40458
#	63070
#	76980
#	101575
#	125160
#	140063
#	160130
#	182588
#	203300
#
# Disc length: 2908 seconds
#
# Revision: 0
# Processed by: cddbd v1.5PL3 Copyright (c) Steve Scherf et al.
# Submitted via: CDex 1.50
#
DISCID=870b5a0b
DTITLE=Sugar - Copper Blue
DYEAR=1992
DGENRE=Rock
TTITLE0=The Act We Act
TTITLE1=A Good Idea
TTITLE2=Changes
TTITLE3=Helpless
TTITLE4=Hoover Dam
TTITLE5=The Slim
TTITLE6=If I Can't Change Your Mind
TTITLE7=Fortune Teller
TTITLE8=Slick
TTITLE9=Man On The Moon
TTITLE10=If I Can't Change Your Mind (solo mix)
EXTD=YEAR: 1992
EXTT0=
EXTT1=
EXTT2=
EXTT3=
EXTT4=
EXTT5=
EXTT6=
EXTT7=
EXTT8=
EXTT9=
EXTT10=
PLAYORDER=
